<svg width="10" height="10" viewBox="0 0 10 10" fill="none" xmlns="http://www.w3.org/2000/svg">
<g clip-path="url(#clip0_4_7225)">
<path d="M7.83875 4.16667C7.9675 4.16667 8.08917 4.10708 8.16792 4.00542C8.24667 3.90375 8.27417 3.77125 8.2425 3.64667C8.11292 3.13958 7.84875 2.67625 7.47875 2.30625L6.02667 0.854167C5.47583 0.303333 4.74333 0 3.96417 0H2.08292C0.934583 0 0 0.934583 0 2.08333V7.91667C0 9.06542 0.934583 10 2.08333 10H3.33333C3.56333 10 3.75 9.81333 3.75 9.58333C3.75 9.35333 3.56333 9.16667 3.33333 9.16667H2.08333C1.39417 9.16667 0.833333 8.60583 0.833333 7.91667V2.08333C0.833333 1.39417 1.39417 0.833333 2.08333 0.833333H3.96458C4.0325 0.833333 4.1 0.836667 4.16667 0.842917V2.91667C4.16667 3.60583 4.7275 4.16667 5.41667 4.16667H7.83875ZM5 2.91667V1.10792C5.15792 1.19875 5.305 1.31125 5.4375 1.44375L6.88958 2.89583C7.02042 3.02667 7.1325 3.17417 7.22417 3.33333H5.41667C5.18708 3.33333 5 3.14625 5 2.91667ZM9.63417 4.94958C9.16167 4.47708 8.33833 4.47708 7.86625 4.94958L5.07167 7.74417C4.75708 8.05875 4.58333 8.4775 4.58333 8.92292V9.58375C4.58333 9.81375 4.77 10.0004 5 10.0004H5.66083C6.10625 10.0004 6.52458 9.82667 6.83917 9.51208L9.63375 6.7175C9.87 6.48125 10 6.1675 10 5.83333C10 5.49917 9.87 5.18542 9.63417 4.94958ZM9.04458 6.12792L6.24958 8.9225C6.0925 9.08 5.88333 9.16667 5.66042 9.16667H5.41625V8.9225C5.41625 8.7 5.50292 8.49083 5.66042 8.33333L8.45542 5.53875C8.6125 5.38125 8.88708 5.38125 9.04458 5.53875C9.12333 5.61708 9.16667 5.72167 9.16667 5.83333C9.16667 5.945 9.12333 6.04917 9.04458 6.12792Z" fill="#83899F"/>
</g>
<defs>
<clipPath id="clip0_4_7225">
<rect width="10" height="10" fill="white"/>
</clipPath>
</defs>
</svg>
