<svg width="12" height="12" viewBox="0 0 12 12" fill="none" xmlns="http://www.w3.org/2000/svg">
<path d="M6.00006 6.37497C4.41506 6.37497 3.12506 5.08498 3.12506 3.49998C3.12506 1.91498 4.41506 0.624985 6.00006 0.624985C7.58505 0.624985 8.87505 1.91498 8.87505 3.49998C8.87505 5.08498 7.58505 6.37497 6.00006 6.37497ZM6.00006 1.37498C4.83006 1.37498 3.87506 2.32998 3.87506 3.49998C3.87506 4.66998 4.83006 5.62497 6.00006 5.62497C7.17005 5.62497 8.12505 4.66998 8.12505 3.49998C8.12505 2.32998 7.17005 1.37498 6.00006 1.37498Z" fill="#83899F"/>
<path d="M10.2951 11.375C10.0901 11.375 9.92012 11.205 9.92012 11C9.92012 9.27497 8.16012 7.87497 6.00013 7.87497C3.84013 7.87497 2.08014 9.27497 2.08014 11C2.08014 11.205 1.91014 11.375 1.70514 11.375C1.50014 11.375 1.33014 11.205 1.33014 11C1.33014 8.86497 3.42513 7.12497 6.00013 7.12497C8.57512 7.12497 10.6701 8.86497 10.6701 11C10.6701 11.205 10.5001 11.375 10.2951 11.375Z" fill="#83899F"/>
</svg>
