<svg width="16" height="16" viewBox="0 0 16 16" fill="none" xmlns="http://www.w3.org/2000/svg">
<path opacity="0.5" d="M8.45178 13.3047C8.63494 13.3473 8.65172 13.5872 8.47332 13.6467L7.41998 13.9933C4.77332 14.8467 3.37998 14.1333 2.51998 11.4867L1.66665 8.85334C0.813317 6.20668 1.51998 4.80668 4.16665 3.95334L4.17731 3.94981C4.58018 3.81639 4.98102 4.22365 4.87901 4.63559C4.87264 4.66132 4.8663 4.68724 4.85998 4.71334L4.20665 7.50668C3.47332 10.6467 4.54665 12.38 7.68665 13.1267L8.45178 13.3047Z" fill="white"/>
<path d="M11.4466 2.14L10.3333 1.88C8.10664 1.35333 6.77998 1.78666 5.99998 3.4C5.79998 3.80666 5.63998 4.3 5.50664 4.86666L4.85331 7.66C4.19998 10.4467 5.05998 11.82 7.83998 12.48L8.95998 12.7467C9.34664 12.84 9.70664 12.9 10.04 12.9267C12.12 13.1267 13.2266 12.1533 13.7866 9.74666L14.44 6.96C15.0933 4.17333 14.24 2.79333 11.4466 2.14ZM10.1933 8.88666C10.1333 9.11333 9.93331 9.26 9.70664 9.26C9.66664 9.26 9.62664 9.25333 9.57998 9.24666L7.63998 8.75333C7.37331 8.68666 7.21331 8.41333 7.27998 8.14666C7.34664 7.88 7.61998 7.72 7.88664 7.78666L9.82664 8.28C10.1 8.34666 10.26 8.62 10.1933 8.88666ZM12.1466 6.63333C12.0866 6.86 11.8866 7.00666 11.66 7.00666C11.62 7.00666 11.58 7 11.5333 6.99333L8.29998 6.17333C8.03331 6.10666 7.87331 5.83333 7.93998 5.56666C8.00664 5.3 8.27998 5.14 8.54664 5.20666L11.78 6.02666C12.0533 6.08666 12.2133 6.36 12.1466 6.63333Z" fill="white"/>
</svg>
