<svg width="16" height="16" viewBox="0 0 16 16" fill="none" xmlns="http://www.w3.org/2000/svg">
<path d="M3.33333 0H12.6667C14.5067 0 16 1.49333 16 3.33333V12.6667C16 14.5067 14.5067 16 12.6667 16H3.33333C1.49333 16 0 14.5067 0 12.6667V3.33333C0 1.49333 1.49333 0 3.33333 0ZM1.33333 12.6667C1.33333 13.7667 2.23333 14.6667 3.33333 14.6667H12.6667C13.7667 14.6667 14.6667 13.7667 14.6667 12.6667V3.33333C14.6667 2.23333 13.7667 1.33333 12.6667 1.33333H3.33333C2.23333 1.33333 1.33333 2.23333 1.33333 3.33333V12.6667ZM12.6667 6.66667C12.6667 6.3 12.3667 6 12 6H6C5.63333 6 5.33333 6.3 5.33333 6.66667C5.33333 7.03333 5.63333 7.33333 6 7.33333H12C12.3667 7.33333 12.6667 7.03333 12.6667 6.66667ZM12.6667 4C12.6667 3.63333 12.3667 3.33333 12 3.33333H8C7.63333 3.33333 7.33333 3.63333 7.33333 4C7.33333 4.36667 7.63333 4.66667 8 4.66667H12C12.3667 4.66667 12.6667 4.36667 12.6667 4ZM3.33333 9.33333C3.33333 9.7 3.63333 10 4 10H12C12.3667 10 12.6667 9.7 12.6667 9.33333C12.6667 8.96667 12.3667 8.66667 12 8.66667H4C3.63333 8.66667 3.33333 8.96667 3.33333 9.33333ZM9.33333 12C9.33333 12.3667 9.63333 12.6667 10 12.6667H12C12.3667 12.6667 12.6667 12.3667 12.6667 12C12.6667 11.6333 12.3667 11.3333 12 11.3333H10C9.63333 11.3333 9.33333 11.6333 9.33333 12Z" fill="#83899F"/>
</svg>
